<?xml version="1.0" encoding="UTF-8" standalone="no"?>
<!DOCTYPE svg PUBLIC "-//W3C//DTD SVG 1.1//EN"
 "http://www.w3.org/Graphics/SVG/1.1/DTD/svg11.dtd">
<!-- Generated by graphviz version 2.40.1 (20161225.0304)
 -->
<!-- Title: G Pages: 1 -->
<svg width="480pt" height="404pt"
 viewBox="0.00 0.00 480.00 404.00" xmlns="http://www.w3.org/2000/svg" xmlns:xlink="http://www.w3.org/1999/xlink">
<g id="graph0" class="graph" transform="scale(1 1) rotate(0) translate(4 400)">
<title>G</title>
<polygon fill="#ffffff" stroke="transparent" points="-4,4 -4,-400 476,-400 476,4 -4,4"/>
<!-- A0 -->
<g id="node1" class="node">
<title>A0</title>
<polygon fill="none" stroke="#000000" points="54,-88 54,-120 158,-120 158,-88 54,-88"/>
<text text-anchor="start" x="63.9065" y="-101" font-family="Helvetica,sans-Serif" font-size="10.00" fill="#000000">+A:LacrossePlayer</text>
<polygon fill="none" stroke="#000000" points="54,-44 54,-88 158,-88 158,-44 54,-44"/>
<text text-anchor="start" x="76.9655" y="-69" font-family="Helvetica,sans-Serif" font-size="10.00" fill="#000000">+name:string</text>
<text text-anchor="start" x="79.469" y="-57" font-family="Helvetica,sans-Serif" font-size="10.00" fill="#000000">+stick:IStick</text>
<polygon fill="none" stroke="#000000" points="54,0 54,-44 158,-44 158,0 54,0"/>
<text text-anchor="start" x="81.7005" y="-25" font-family="Helvetica,sans-Serif" font-size="10.00" fill="#000000">+WallBall()</text>
<text text-anchor="start" x="77.245" y="-13" font-family="Helvetica,sans-Serif" font-size="10.00" fill="#000000">+PlayLax():A</text>
</g>
<!-- A1 -->
<g id="node2" class="node">
<title>A1</title>
<polygon fill="none" stroke="#000000" points="0,-214 0,-246 78,-246 78,-214 0,-214"/>
<text text-anchor="start" x="9.6855" y="-227" font-family="Helvetica,sans-Serif" font-size="10.00" fill="#000000">+I:ILaxPlayer</text>
<polygon fill="none" stroke="#000000" points="0,-182 0,-214 78,-214 78,-182 0,-182"/>
<text text-anchor="start" x="17.614" y="-195" font-family="Helvetica,sans-Serif" font-size="10.00" fill="#000000">Practice()</text>
</g>
<!-- A7JA0 -->
<!-- A1&#45;&gt;A7JA0 -->
<g id="edge9" class="edge">
<title>A1&#45;&gt;A7JA0</title>
<path fill="none" stroke="#000000" stroke-dasharray="5,2" d="M78.1875,-214C80.5242,-214 82.861,-214 85.1977,-214"/>
<polygon fill="#000000" stroke="#000000" points="95.4434,-214 85.4434,-218.5001 90.4434,-214 85.4434,-214.0001 85.4434,-214.0001 85.4434,-214.0001 90.4434,-214 85.4433,-209.5001 95.4434,-214 95.4434,-214"/>
</g>
<!-- A8JA0 -->
<!-- A1&#45;&gt;A8JA0 -->
<g id="edge12" class="edge">
<title>A1&#45;&gt;A8JA0</title>
<path fill="none" stroke="#000000" stroke-dasharray="5,2" d="M50.5021,-246.386C59.7467,-266.0453 74.7226,-286.706 96,-283 119.3339,-278.9358 118.4526,-242.6657 116.4807,-224.406"/>
<polygon fill="#000000" stroke="#000000" points="115.0755,-214.4063 120.9234,-223.6828 115.7714,-219.3577 116.4672,-224.309 116.4672,-224.309 116.4672,-224.309 115.7714,-219.3577 112.011,-224.9353 115.0755,-214.4063 115.0755,-214.4063"/>
</g>
<!-- A2 -->
<g id="node3" class="node">
<title>A2</title>
<polygon fill="none" stroke="#000000" points="224,-364 224,-396 279,-396 279,-364 224,-364"/>
<text text-anchor="start" x="233.5785" y="-377" font-family="Helvetica,sans-Serif" font-size="10.00" fill="#000000">+I:IStick</text>
<polygon fill="none" stroke="#000000" points="224,-308 224,-364 279,-364 279,-308 224,-308"/>
<text text-anchor="start" x="235.113" y="-345" font-family="Helvetica,sans-Serif" font-size="10.00" fill="#000000">Catch()</text>
<text text-anchor="start" x="234.2835" y="-333" font-family="Helvetica,sans-Serif" font-size="10.00" fill="#000000">Throw()</text>
<text text-anchor="start" x="235.1085" y="-321" font-family="Helvetica,sans-Serif" font-size="10.00" fill="#000000">Shoot()</text>
</g>
<!-- A3 -->
<g id="node4" class="node">
<title>A3</title>
<polygon fill="none" stroke="#000000" points="279,-226 279,-258 356,-258 356,-226 279,-226"/>
<text text-anchor="start" x="299.023" y="-239" font-family="Helvetica,sans-Serif" font-size="10.00" fill="#000000">+A:Stick</text>
<polygon fill="none" stroke="#000000" points="279,-170 279,-226 356,-226 356,-170 279,-170"/>
<text text-anchor="start" x="288.745" y="-207" font-family="Helvetica,sans-Serif" font-size="10.00" fill="#000000">+mesh:string</text>
<text text-anchor="start" x="289.8505" y="-195" font-family="Helvetica,sans-Serif" font-size="10.00" fill="#000000">+head:string</text>
<text text-anchor="start" x="290.1305" y="-183" font-family="Helvetica,sans-Serif" font-size="10.00" fill="#000000">+shaft:string</text>
</g>
<!-- A4JA5 -->
<!-- A3&#45;&gt;A4JA5 -->
<g id="edge3" class="edge">
<title>A3&#45;&gt;A4JA5</title>
<path fill="none" stroke="#000000" stroke-dasharray="5,2" d="M334.7911,-258.181C344.0358,-273.3803 357.0087,-285.9595 374,-283 397.3339,-278.9358 396.4526,-242.6657 394.4807,-224.406"/>
<polygon fill="#000000" stroke="#000000" points="393.0755,-214.4063 398.9234,-223.6828 393.7714,-219.3577 394.4672,-224.309 394.4672,-224.309 394.4672,-224.309 393.7714,-219.3577 390.011,-224.9353 393.0755,-214.4063 393.0755,-214.4063"/>
</g>
<!-- A6JA5 -->
<!-- A3&#45;&gt;A6JA5 -->
<g id="edge6" class="edge">
<title>A3&#45;&gt;A6JA5</title>
<path fill="none" stroke="#000000" stroke-dasharray="5,2" d="M355.7422,-214C358.2295,-214 360.7167,-214 363.204,-214"/>
<polygon fill="#000000" stroke="#000000" points="373.4294,-214 363.4295,-218.5001 368.4294,-214 363.4294,-214.0001 363.4294,-214.0001 363.4294,-214.0001 368.4294,-214 363.4294,-209.5001 373.4294,-214 373.4294,-214"/>
</g>
<!-- A4 -->
<g id="node5" class="node">
<title>A4</title>
<polygon fill="none" stroke="#000000" points="392,-352 392,-384 472,-384 472,-352 392,-352"/>
<text text-anchor="start" x="406.2995" y="-365" font-family="Helvetica,sans-Serif" font-size="10.00" fill="#000000">+ShortStick</text>
<polygon fill="none" stroke="#000000" points="392,-320 392,-352 472,-352 472,-320 392,-320"/>
<text text-anchor="start" x="401.7255" y="-333" font-family="Helvetica,sans-Serif" font-size="10.00" fill="#000000">SwimDodge()</text>
</g>
<!-- A4&#45;&gt;A4JA5 -->
<g id="edge1" class="edge">
<title>A4&#45;&gt;A4JA5</title>
<path fill="none" stroke="#000000" d="M420.1376,-310.0253C409.2472,-271.4902 394.5822,-219.5985 393.1189,-214.4207"/>
<polygon fill="none" stroke="#000000" points="416.8669,-311.3219 422.9546,-319.9932 423.603,-309.4182 416.8669,-311.3219"/>
</g>
<!-- A5 -->
<g id="node6" class="node">
<title>A5</title>
<polygon fill="none" stroke="#000000" points="413.564,-78 352.436,-78 352.436,-42 413.564,-42 413.564,-78"/>
<text text-anchor="middle" x="383" y="-57" font-family="Helvetica,sans-Serif" font-size="10.00" fill="#000000">+I:Stick</text>
</g>
<!-- A4JA5&#45;&gt;A5 -->
<g id="edge2" class="edge">
<title>A4JA5&#45;&gt;A5</title>
<path fill="none" stroke="#000000" d="M392.9713,-213.5582C392.5142,-206.519 386.7139,-117.1946 384.1759,-78.1091"/>
</g>
<!-- A6 -->
<g id="node8" class="node">
<title>A6</title>
<polygon fill="none" stroke="#000000" points="297,-352 297,-384 374,-384 374,-352 297,-352"/>
<text text-anchor="start" x="318.968" y="-365" font-family="Helvetica,sans-Serif" font-size="10.00" fill="#000000">+DPole</text>
<polygon fill="none" stroke="#000000" points="297,-320 297,-352 374,-352 374,-320 297,-320"/>
<text text-anchor="start" x="306.609" y="-333" font-family="Helvetica,sans-Serif" font-size="10.00" fill="#000000">PokeCheck()</text>
</g>
<!-- A6&#45;&gt;A6JA5 -->
<g id="edge4" class="edge">
<title>A6&#45;&gt;A6JA5</title>
<path fill="none" stroke="#000000" d="M348.626,-310.2436C353.7265,-294.0131 359.3953,-275.2151 364,-258 368.6961,-240.443 373.0934,-218.5714 373.8766,-214.6247"/>
<polygon fill="none" stroke="#000000" points="345.2248,-309.3904 345.5382,-319.9806 351.8974,-311.5064 345.2248,-309.3904"/>
</g>
<!-- A6JA5&#45;&gt;A5 -->
<g id="edge5" class="edge">
<title>A6JA5&#45;&gt;A5</title>
<path fill="none" stroke="#000000" d="M374.0258,-213.5582C374.4372,-206.519 379.6575,-117.1946 381.9417,-78.1091"/>
</g>
<!-- A7 -->
<g id="node10" class="node">
<title>A7</title>
<polygon fill="none" stroke="#000000" points="16,-352 16,-384 92,-384 92,-352 16,-352"/>
<text text-anchor="start" x="25.9395" y="-365" font-family="Helvetica,sans-Serif" font-size="10.00" fill="#000000">AttackPlayer</text>
<polygon fill="none" stroke="#000000" points="16,-320 16,-352 92,-352 92,-320 16,-320"/>
<text text-anchor="start" x="37.613" y="-333" font-family="Helvetica,sans-Serif" font-size="10.00" fill="#000000">Score()</text>
</g>
<!-- A7&#45;&gt;A7JA0 -->
<g id="edge7" class="edge">
<title>A7&#45;&gt;A7JA0</title>
<path fill="none" stroke="#000000" d="M70.0993,-310.0465C75.9216,-293.9272 82.2298,-275.2568 87,-258 91.8196,-240.5647 95.2953,-218.5942 95.9046,-214.6279"/>
<polygon fill="none" stroke="#000000" points="66.7097,-309.1242 66.5549,-319.7179 73.2822,-311.533 66.7097,-309.1242"/>
</g>
<!-- A7JA0&#45;&gt;A0 -->
<g id="edge8" class="edge">
<title>A7JA0&#45;&gt;A0</title>
<path fill="none" stroke="#000000" d="M96.0287,-213.5582C96.3563,-208.5125 99.4293,-161.1895 102.0782,-120.3953"/>
</g>
<!-- A8 -->
<g id="node12" class="node">
<title>A8</title>
<polygon fill="none" stroke="#000000" points="111,-352 111,-384 206,-384 206,-352 111,-352"/>
<text text-anchor="start" x="125.7155" y="-365" font-family="Helvetica,sans-Serif" font-size="10.00" fill="#000000">DefencePlayer</text>
<polygon fill="none" stroke="#000000" points="111,-320 111,-352 206,-352 206,-320 111,-320"/>
<text text-anchor="start" x="120.7215" y="-333" font-family="Helvetica,sans-Serif" font-size="10.00" fill="#000000">CauseTurnover()</text>
</g>
<!-- A8&#45;&gt;A8JA0 -->
<g id="edge10" class="edge">
<title>A8&#45;&gt;A8JA0</title>
<path fill="none" stroke="#000000" d="M144.9209,-310.0253C132.9136,-271.4902 116.7445,-219.5985 115.1311,-214.4207"/>
<polygon fill="none" stroke="#000000" points="141.7104,-311.4871 148.0269,-319.9932 148.3935,-309.4047 141.7104,-311.4871"/>
</g>
<!-- A8JA0&#45;&gt;A0 -->
<g id="edge11" class="edge">
<title>A8JA0&#45;&gt;A0</title>
<path fill="none" stroke="#000000" d="M114.9742,-213.5582C114.6793,-208.5125 111.9137,-161.1895 109.5296,-120.3953"/>
</g>
</g>
</svg>
