<?xml version="1.0" encoding="UTF-8" standalone="no"?>
<!DOCTYPE svg PUBLIC "-//W3C//DTD SVG 1.1//EN"
 "http://www.w3.org/Graphics/SVG/1.1/DTD/svg11.dtd">
<!-- Generated by graphviz version 2.40.1 (20161225.0304)
 -->
<!-- Title: G Pages: 1 -->
<svg width="302pt" height="346pt"
 viewBox="0.00 0.00 301.50 346.00" xmlns="http://www.w3.org/2000/svg" xmlns:xlink="http://www.w3.org/1999/xlink">
<g id="graph0" class="graph" transform="scale(1 1) rotate(0) translate(4 342)">
<title>G</title>
<polygon fill="#ffffff" stroke="transparent" points="-4,4 -4,-342 297.5,-342 297.5,4 -4,4"/>
<!-- A0 -->
<g id="node1" class="node">
<title>A0</title>
<polygon fill="none" stroke="#000000" points="28,-84 28,-116 105,-116 105,-84 28,-84"/>
<text text-anchor="start" x="37.7455" y="-97" font-family="Helvetica,sans-Serif" font-size="10.00" fill="#000000">+I:ICustomer</text>
<polygon fill="none" stroke="#000000" points="28,-52 28,-84 105,-84 105,-52 28,-52"/>
<text text-anchor="start" x="50.6685" y="-65" font-family="Helvetica,sans-Serif" font-size="10.00" fill="#000000">Greet()</text>
</g>
<!-- A1 -->
<g id="node2" class="node">
<title>A1</title>
<polygon fill="none" stroke="#000000" points="0,-306 0,-338 132,-338 132,-306 0,-306"/>
<text text-anchor="start" x="41.414" y="-319" font-family="Helvetica,sans-Serif" font-size="10.00" fill="#000000">+Customer</text>
<polygon fill="none" stroke="#000000" points="0,-250 0,-306 132,-306 132,-250 0,-250"/>
<text text-anchor="start" x="36.9655" y="-287" font-family="Helvetica,sans-Serif" font-size="10.00" fill="#000000">+name:string</text>
<text text-anchor="start" x="9.891" y="-275" font-family="Helvetica,sans-Serif" font-size="10.00" fill="#000000">&#45;creditCardNumber:string</text>
<text text-anchor="start" x="21.1385" y="-263" font-family="Helvetica,sans-Serif" font-size="10.00" fill="#000000">+CreditCardNumber</text>
<polygon fill="none" stroke="#000000" points="0,-218 0,-250 132,-250 132,-218 0,-218"/>
<text text-anchor="start" x="47.249" y="-231" font-family="Helvetica,sans-Serif" font-size="10.00" fill="#000000">+Greet()</text>
</g>
<!-- A1&#45;&gt;A0 -->
<g id="edge1" class="edge">
<title>A1&#45;&gt;A0</title>
<path fill="none" stroke="#000000" d="M66,-217.9458C66,-188.2772 66,-153.1873 66,-126.3667"/>
<polygon fill="#000000" stroke="#000000" points="66,-116.155 70.5001,-126.155 66,-121.155 66.0001,-126.155 66.0001,-126.155 66.0001,-126.155 66,-121.155 61.5001,-126.1551 66,-116.155 66,-116.155"/>
</g>
<!-- A2 -->
<g id="node3" class="node">
<title>A2</title>
<polygon fill="none" stroke="#000000" points="157,-136 157,-168 288,-168 288,-136 157,-136"/>
<text text-anchor="start" x="200.139" y="-149" font-family="Helvetica,sans-Serif" font-size="10.00" fill="#000000">+HotDrink</text>
<polygon fill="none" stroke="#000000" points="157,-56 157,-136 288,-136 288,-56 157,-56"/>
<text text-anchor="start" x="194.016" y="-117" font-family="Helvetica,sans-Serif" font-size="10.00" fill="#000000">+instant:bool</text>
<text text-anchor="start" x="199.8595" y="-105" font-family="Helvetica,sans-Serif" font-size="10.00" fill="#000000">+milk:bool</text>
<text text-anchor="start" x="197.4945" y="-93" font-family="Helvetica,sans-Serif" font-size="10.00" fill="#000000">&#45;sugar:byte</text>
<text text-anchor="start" x="193.186" y="-81" font-family="Helvetica,sans-Serif" font-size="10.00" fill="#000000">+brand:string</text>
<text text-anchor="start" x="197.0795" y="-69" font-family="Helvetica,sans-Serif" font-size="10.00" fill="#000000">+size:string</text>
<polygon fill="none" stroke="#000000" points="157,0 157,-56 288,-56 288,0 157,0"/>
<text text-anchor="start" x="170.4155" y="-37" font-family="Helvetica,sans-Serif" font-size="10.00" fill="#000000">+HotDrink(brand:string)</text>
<text text-anchor="start" x="166.5105" y="-25" font-family="Helvetica,sans-Serif" font-size="10.00" fill="#000000">+AddSugar(amount:byte)</text>
<text text-anchor="start" x="201.804" y="-13" font-family="Helvetica,sans-Serif" font-size="10.00" fill="#000000">+Steam()</text>
</g>
<!-- A3 -->
<g id="node4" class="node">
<title>A3</title>
<polygon fill="none" stroke="#000000" points="151,-306 151,-338 294,-338 294,-306 151,-306"/>
<text text-anchor="start" x="190.406" y="-319" font-family="Helvetica,sans-Serif" font-size="10.00" fill="#000000">+CupOfCoffee</text>
<polygon fill="none" stroke="#000000" points="151,-274 151,-306 294,-306 294,-274 151,-274"/>
<text text-anchor="start" x="183.737" y="-287" font-family="Helvetica,sans-Serif" font-size="10.00" fill="#000000">+beanType:string</text>
<polygon fill="none" stroke="#000000" points="151,-218 151,-274 294,-274 294,-218 151,-218"/>
<text text-anchor="start" x="187.077" y="-255" font-family="Helvetica,sans-Serif" font-size="10.00" fill="#000000">+CupOfCoffee()</text>
<text text-anchor="start" x="160.6825" y="-243" font-family="Helvetica,sans-Serif" font-size="10.00" fill="#000000">+CupOfCoffee(brand:string)</text>
<text text-anchor="start" x="201.804" y="-231" font-family="Helvetica,sans-Serif" font-size="10.00" fill="#000000">+Steam()</text>
</g>
<!-- A3&#45;&gt;A2 -->
<g id="edge2" class="edge">
<title>A3&#45;&gt;A2</title>
<path fill="none" stroke="#000000" d="M222,-217.9458C222,-205.4423 222,-191.976 222,-178.5715"/>
<polygon fill="#000000" stroke="#000000" points="222,-168.35 226.5001,-178.35 222,-173.35 222.0001,-178.35 222.0001,-178.35 222.0001,-178.35 222,-173.35 217.5001,-178.3501 222,-168.35 222,-168.35"/>
</g>
</g>
</svg>
